<svg width="1440" height="4079" viewBox="0 0 1440 4079" fill="none" xmlns="http://www.w3.org/2000/svg">
<g filter="url(#filter0_f_555_111)">
<path fill-rule="evenodd" clip-rule="evenodd" d="M26.2544 232.208C78.892 247.107 86.007 317.251 126.46 354.029C171.373 394.862 257.977 394.688 270.292 454.076C282.788 514.337 224.136 564.687 178.786 606.364C135.771 645.894 84.3899 684.515 26.2544 678.348C-28.7362 672.515 -58.8011 617.056 -96.9771 577.111C-133.638 538.751 -178.38 506.204 -188.086 454.076C-199.667 391.878 -197.244 320.386 -153.255 274.852C-108.866 228.904 -35.2617 214.795 26.2544 232.208Z" fill="url(#paint0_linear_555_111)" fill-opacity="0.42"/>
</g>
<g filter="url(#filter1_f_555_111)">
<path fill-rule="evenodd" clip-rule="evenodd" d="M205.785 2116.81C188.143 2175.68 191.686 2259.49 133.302 2278.68C75.2243 2297.78 32.7526 2222.25 -19.7766 2190.97C-70.9357 2160.51 -152.663 2158.6 -165.881 2100.54C-179.106 2042.46 -110.105 2002.54 -73.356 1955.65C-44.78 1919.19 -20.7613 1880.41 21.5079 1861.46C72.7425 1838.49 136.163 1808.98 182.251 1841.05C227.955 1872.85 212.733 1942.35 217.468 1997.82C220.991 2039.1 217.678 2077.13 205.785 2116.81Z" fill="url(#paint1_linear_555_111)" fill-opacity="0.42"/>
</g>
<g filter="url(#filter2_f_555_111)">
<path fill-rule="evenodd" clip-rule="evenodd" d="M1592.65 2386.87C1608.29 2451.1 1684.41 2501.72 1662.92 2564.24C1640.56 2629.31 1562.83 2657.95 1495.18 2670.48C1432.59 2682.07 1374.01 2655.43 1316.38 2628.42C1250.57 2597.58 1160.45 2577.8 1145.61 2506.65C1130.83 2435.81 1214.67 2388.92 1253.7 2327.98C1289.37 2272.27 1300.64 2196.97 1361.11 2170.14C1427.86 2140.53 1517.83 2137.27 1571.14 2187.17C1621.95 2234.73 1576.19 2319.24 1592.65 2386.87Z" fill="url(#paint2_linear_555_111)" fill-opacity="0.42"/>
</g>
<g filter="url(#filter3_f_555_111)">
<path fill-rule="evenodd" clip-rule="evenodd" d="M1416.42 891.197C1456.6 883.713 1484.48 836.813 1525.2 840.172C1569.45 843.821 1623.07 866.743 1635.95 909.301C1649.26 953.269 1593.82 988.996 1583.82 1033.83C1574.98 1073.44 1599.34 1116.61 1581.58 1153.08C1562.14 1193.01 1525.48 1224.36 1483.74 1239.38C1440.9 1254.79 1389.73 1258.61 1349.98 1236.4C1311.62 1214.97 1302.52 1165.37 1281.81 1126.57C1265.81 1096.59 1238.57 1068.58 1242.36 1034.8C1246.06 1001.83 1284.67 985.804 1300.85 956.854C1315.1 931.347 1305.49 890.793 1330.87 876.373C1356.57 861.776 1387.38 896.607 1416.42 891.197Z" fill="url(#paint3_linear_555_111)" fill-opacity="0.42"/>
</g>
<g filter="url(#filter4_f_555_111)">
<path fill-rule="evenodd" clip-rule="evenodd" d="M69.0797 3159.2C99.6615 3164.82 113.812 3203.59 143.775 3211.91C194.854 3226.09 265.227 3182.32 299.175 3223.07C329.172 3259.07 273.873 3310.47 264.077 3356.31C255.16 3398.04 278.8 3455.17 244.24 3480.17C207.064 3507.06 155.689 3471.79 110.001 3467.75C82.8223 3465.34 57.3121 3459.71 30.0697 3461.23C-16.4508 3463.82 -72.3254 3512.39 -105.619 3479.77C-137.561 3448.47 -75.3468 3394.21 -83.2617 3350.17C-91.6856 3303.3 -166.27 3272.76 -150.927 3227.68C-136.248 3184.55 -69.073 3194.3 -25.6055 3180.78C5.94267 3170.96 36.5849 3153.23 69.0797 3159.2Z" fill="url(#paint4_linear_555_111)" fill-opacity="0.42"/>
</g>
<g filter="url(#filter5_f_555_111)">
<path fill-rule="evenodd" clip-rule="evenodd" d="M1422.78 3301.3C1455.17 3313.55 1480.6 3335.47 1510.28 3353.31C1541.13 3371.85 1575.55 3382.47 1600.7 3408.21C1634.45 3442.75 1673.08 3478.48 1679.36 3526.36C1686.15 3578.25 1671.95 3636.24 1635.49 3673.78C1599.41 3710.93 1541.6 3730 1490.66 3720.64C1442.8 3711.85 1426.91 3646.75 1382.31 3627.29C1346.68 3611.73 1301.76 3642.96 1268.1 3623.5C1231.9 3602.58 1204.36 3563.1 1199.46 3521.58C1194.57 3480.27 1230.16 3446.87 1242.53 3407.15C1257.29 3359.75 1236.27 3291.01 1279.08 3265.87C1322.5 3240.37 1375.68 3283.49 1422.78 3301.3Z" fill="url(#paint5_linear_555_111)" fill-opacity="0.42"/>
</g>
<g filter="url(#filter6_f_555_111)">
<path fill-rule="evenodd" clip-rule="evenodd" d="M1441.42 -152.977C1478.39 -154.105 1501.57 -112.79 1526.89 -85.845C1546.98 -64.4648 1559.54 -39.0491 1572.97 -12.9717C1587.12 14.4962 1611.2 40.2676 1607.65 70.9565C1604.08 101.761 1579.07 125.982 1554.68 145.151C1532.97 162.212 1505.33 166.931 1478.31 172.616C1453.28 177.882 1428.36 172.107 1403.25 177.007C1348.16 187.76 1293.56 243.912 1243.55 218.436C1200.52 196.514 1210.2 128.148 1212.7 79.9385C1214.9 37.4137 1228.08 -5.7366 1256.79 -37.2051C1282.3 -65.1818 1327.16 -60.6146 1359.25 -80.7332C1390.79 -100.511 1404.21 -151.843 1441.42 -152.977Z" fill="url(#paint6_linear_555_111)" fill-opacity="0.42"/>
</g>
<defs>
<filter id="filter0_f_555_111" x="-550" y="-131" width="1178" height="1166" filterUnits="userSpaceOnUse" color-interpolation-filters="sRGB">
<feFlood flood-opacity="0" result="BackgroundImageFix"/>
<feBlend mode="normal" in="SourceGraphic" in2="BackgroundImageFix" result="shape"/>
<feGaussianBlur stdDeviation="178" result="effect1_foregroundBlur_555_111"/>
</filter>
<filter id="filter1_f_555_111" x="-523.542" y="1470.94" width="1098.34" height="1166.79" filterUnits="userSpaceOnUse" color-interpolation-filters="sRGB">
<feFlood flood-opacity="0" result="BackgroundImageFix"/>
<feBlend mode="normal" in="SourceGraphic" in2="BackgroundImageFix" result="shape"/>
<feGaussianBlur stdDeviation="178" result="effect1_foregroundBlur_555_111"/>
</filter>
<filter id="filter2_f_555_111" x="787.882" y="1792.61" width="1234.83" height="1236.65" filterUnits="userSpaceOnUse" color-interpolation-filters="sRGB">
<feFlood flood-opacity="0" result="BackgroundImageFix"/>
<feBlend mode="normal" in="SourceGraphic" in2="BackgroundImageFix" result="shape"/>
<feGaussianBlur stdDeviation="178" result="effect1_foregroundBlur_555_111"/>
</filter>
<filter id="filter3_f_555_111" x="886" y="484" width="1108" height="1124" filterUnits="userSpaceOnUse" color-interpolation-filters="sRGB">
<feFlood flood-opacity="0" result="BackgroundImageFix"/>
<feBlend mode="normal" in="SourceGraphic" in2="BackgroundImageFix" result="shape"/>
<feGaussianBlur stdDeviation="178" result="effect1_foregroundBlur_555_111"/>
</filter>
<filter id="filter4_f_555_111" x="-509" y="2802" width="1173" height="1045" filterUnits="userSpaceOnUse" color-interpolation-filters="sRGB">
<feFlood flood-opacity="0" result="BackgroundImageFix"/>
<feBlend mode="normal" in="SourceGraphic" in2="BackgroundImageFix" result="shape"/>
<feGaussianBlur stdDeviation="178" result="effect1_foregroundBlur_555_111"/>
</filter>
<filter id="filter5_f_555_111" x="843" y="2902" width="1194" height="1177" filterUnits="userSpaceOnUse" color-interpolation-filters="sRGB">
<feFlood flood-opacity="0" result="BackgroundImageFix"/>
<feBlend mode="normal" in="SourceGraphic" in2="BackgroundImageFix" result="shape"/>
<feGaussianBlur stdDeviation="178" result="effect1_foregroundBlur_555_111"/>
</filter>
<filter id="filter6_f_555_111" x="854" y="-509" width="1110" height="1090" filterUnits="userSpaceOnUse" color-interpolation-filters="sRGB">
<feFlood flood-opacity="0" result="BackgroundImageFix"/>
<feBlend mode="normal" in="SourceGraphic" in2="BackgroundImageFix" result="shape"/>
<feGaussianBlur stdDeviation="178" result="effect1_foregroundBlur_555_111"/>
</filter>
<linearGradient id="paint0_linear_555_111" x1="-213.827" y1="380.901" x2="-26.2223" y2="764.105" gradientUnits="userSpaceOnUse">
<stop stop-color="#2C2C2C"/>
<stop offset="1" stop-color="#028A5C"/>
</linearGradient>
<linearGradient id="paint1_linear_555_111" x1="244.91" y1="1856.06" x2="-118.207" y2="1820.38" gradientUnits="userSpaceOnUse">
<stop stop-color="#2C2C2C"/>
<stop offset="1" stop-color="#028A5C"/>
</linearGradient>
<linearGradient id="paint2_linear_555_111" x1="1389.52" y1="2136.41" x2="1030.3" y2="2447.65" gradientUnits="userSpaceOnUse">
<stop stop-color="#2C2C2C"/>
<stop offset="1" stop-color="#028A5C"/>
</linearGradient>
<linearGradient id="paint3_linear_555_111" x1="1225.15" y1="981.479" x2="1402.16" y2="1320.04" gradientUnits="userSpaceOnUse">
<stop stop-color="#2C2C2C"/>
<stop offset="1" stop-color="#028A5C"/>
</linearGradient>
<linearGradient id="paint4_linear_555_111" x1="-172.614" y1="3272.35" x2="-60.8609" y2="3580.23" gradientUnits="userSpaceOnUse">
<stop stop-color="#2C2C2C"/>
<stop offset="1" stop-color="#028A5C"/>
</linearGradient>
<linearGradient id="paint5_linear_555_111" x1="1178.49" y1="3417.68" x2="1369.48" y2="3811.65" gradientUnits="userSpaceOnUse">
<stop stop-color="#2C2C2C"/>
<stop offset="1" stop-color="#028A5C"/>
</linearGradient>
<linearGradient id="paint6_linear_555_111" x1="1193.07" y1="-23.1966" x2="1346.81" y2="298.952" gradientUnits="userSpaceOnUse">
<stop stop-color="#2C2C2C"/>
<stop offset="1" stop-color="#028A5C"/>
</linearGradient>
</defs>
</svg>
