<svg width="22" height="22" viewBox="0 0 22 22" fill="none" xmlns="http://www.w3.org/2000/svg">
<path d="M21.0725 22H0.927487C0.681502 22 0.445593 21.9002 0.271655 21.7225C0.0977173 21.5448 0 21.3038 0 21.0525V0.947459C0 0.696177 0.0977173 0.455188 0.271655 0.277505C0.445593 0.0998215 0.681502 0 0.927487 0H4.17369C4.41968 0 4.65559 0.0998215 4.82953 0.277505C5.00346 0.455188 5.10118 0.696177 5.10118 0.947459C5.10118 1.19874 5.00346 1.43973 4.82953 1.61741C4.65559 1.7951 4.41968 1.89492 4.17369 1.89492H1.85497V20.1051H20.145V1.89492H10.1328C9.88681 1.89492 9.6509 1.7951 9.47697 1.61741C9.30303 1.43973 9.20531 1.19874 9.20531 0.947459C9.20531 0.696177 9.30303 0.455188 9.47697 0.277505C9.6509 0.0998215 9.88681 0 10.1328 0H21.0725C21.3185 0 21.5544 0.0998215 21.7283 0.277505C21.9023 0.455188 22 0.696177 22 0.947459V21.0525C22 21.3038 21.9023 21.5448 21.7283 21.7225C21.5544 21.9002 21.3185 22 21.0725 22Z" fill="#277761"/>
<path d="M11.8251 14.8385C11.5459 14.8246 11.2835 14.6979 11.0957 14.4864C10.9079 14.2749 10.81 13.9959 10.8236 13.7106L10.9424 11.2211L8.5053 11.0997C8.2261 11.0858 7.96373 10.9592 7.77593 10.7477C7.58812 10.5362 7.49026 10.2571 7.50387 9.9719C7.51747 9.68668 7.64144 9.41867 7.84849 9.22682C8.05554 9.03497 8.32872 8.935 8.60792 8.9489L12.0978 9.12265C12.377 9.13655 12.6393 9.26318 12.8271 9.47469C13.015 9.6862 13.1128 9.96526 13.0992 10.2505L12.9291 13.8155C12.9155 14.1007 12.7915 14.3687 12.5845 14.5606C12.3774 14.7524 12.1043 14.8524 11.8251 14.8385Z" fill="#277761"/>
<path d="M5.00679 17.7469C4.79763 17.7377 4.59588 17.6651 4.42726 17.5384C4.25864 17.4116 4.1308 17.2364 4.06003 17.0352C3.98926 16.8339 3.97876 16.6157 4.02989 16.4083C4.08101 16.2009 4.19143 16.0137 4.34708 15.8707L11.3355 9.4005C11.5443 9.22473 11.8113 9.13771 12.0811 9.15746C12.351 9.17722 12.6031 9.30223 12.7852 9.50662C12.9674 9.71101 13.0656 9.97912 13.0595 10.2554C13.0535 10.5318 12.9437 10.7951 12.7528 10.991L5.76411 17.4666C5.55795 17.6588 5.2856 17.7596 5.00679 17.7469Z" fill="#277761"/>
</svg>
