<svg width="30" height="30" viewBox="0 0 30 30" fill="none" xmlns="http://www.w3.org/2000/svg">
<path fill-rule="evenodd" clip-rule="evenodd" d="M15 4.5C13.6211 4.5 12.2557 4.77159 10.9818 5.29926C9.70791 5.82694 8.55039 6.60036 7.57538 7.57538C6.60036 8.55039 5.82694 9.70791 5.29926 10.9818C4.77159 12.2557 4.5 13.6211 4.5 15C4.5 16.3789 4.77159 17.7443 5.29926 19.0182C5.82694 20.2921 6.60036 21.4496 7.57538 22.4246C8.55039 23.3996 9.70791 24.1731 10.9818 24.7007C12.2557 25.2284 13.6211 25.5 15 25.5C17.7848 25.5 20.4555 24.3938 22.4246 22.4246C24.3938 20.4555 25.5 17.7848 25.5 15C25.5 12.2152 24.3938 9.54451 22.4246 7.57538C20.4555 5.60625 17.7848 4.5 15 4.5ZM1.5 15C1.5 11.4196 2.92232 7.9858 5.45406 5.45406C7.9858 2.92232 11.4196 1.5 15 1.5C18.5804 1.5 22.0142 2.92232 24.5459 5.45406C27.0777 7.9858 28.5 11.4196 28.5 15C28.5 18.5804 27.0777 22.0142 24.5459 24.5459C22.0142 27.0777 18.5804 28.5 15 28.5C11.4196 28.5 7.9858 27.0777 5.45406 24.5459C2.92232 22.0142 1.5 18.5804 1.5 15ZM14.1345 10.5C13.7673 10.5 13.4152 10.6459 13.1555 10.9055C12.8959 11.1652 12.75 11.5173 12.75 11.8845V12.462C12.75 12.8598 12.592 13.2414 12.3107 13.5227C12.0294 13.804 11.6478 13.962 11.25 13.962C10.8522 13.962 10.4706 13.804 10.1893 13.5227C9.90804 13.2414 9.75 12.8598 9.75 12.462V11.8845C9.75 10.7217 10.2119 9.60644 11.0342 8.78419C11.8564 7.96194 12.9717 7.5 14.1345 7.5H15C17.9115 7.5 20.25 9.8865 20.25 12.774C20.25 14.1645 19.53 15.474 18.336 16.209L15.786 17.778C15.6182 17.8812 15.4317 17.9504 15.2371 17.9815C15.0425 18.0126 14.8438 18.0052 14.6521 17.9595C14.4604 17.9138 14.2797 17.8308 14.1201 17.7152C13.9605 17.5997 13.8252 17.4538 13.722 17.286C13.5135 16.9471 13.4483 16.5392 13.5405 16.1521C13.6328 15.765 13.8751 15.4305 14.214 15.222L16.764 13.653C16.9129 13.5597 17.0356 13.4301 17.1206 13.2763C17.2056 13.1225 17.2501 12.9497 17.25 12.774C17.25 11.5185 16.23 10.5 15 10.5H14.1345ZM15.015 22.5C15.4128 22.5 15.7944 22.342 16.0757 22.0607C16.357 21.7794 16.515 21.3978 16.515 21C16.515 20.6022 16.357 20.2206 16.0757 19.9393C15.7944 19.658 15.4128 19.5 15.015 19.5H15C14.6022 19.5 14.2206 19.658 13.9393 19.9393C13.658 20.2206 13.5 20.6022 13.5 21C13.5 21.3978 13.658 21.7794 13.9393 22.0607C14.2206 22.342 14.6022 22.5 15 22.5H15.015Z" fill="#F3F7F6"/>
</svg>
