<svg width="36" height="36" viewBox="0 0 36 36" fill="none" xmlns="http://www.w3.org/2000/svg">
<path d="M21.5804 27.0727C21.9248 26.753 22.1098 26.3588 22.1354 25.8901C22.161 25.4211 22.0033 25.0157 21.6624 24.6738L17.3934 20.1619L17.4475 19.9891H17.7795C19.2806 19.9331 20.5179 19.4413 21.4914 18.5138C22.4646 17.5861 23.0641 16.4805 23.2898 15.1972H24.0315C24.3375 15.1972 24.5899 15.0901 24.7889 14.876C24.9878 14.6619 25.0873 14.4018 25.0873 14.0955C25.0873 13.7896 24.9878 13.5366 24.7889 13.3365C24.5899 13.1364 24.3375 13.0363 24.0315 13.0363H23.2566C23.1775 12.5988 23.0391 12.1832 22.8413 11.7895C22.6435 11.3957 22.395 11.0128 22.0957 10.6406H24.0315C24.3375 10.6406 24.5899 10.5336 24.7889 10.3195C24.9878 10.1051 25.0873 9.84492 25.0873 9.53897C25.0873 9.23301 24.9878 8.97999 24.7889 8.77991C24.5899 8.57982 24.3375 8.47978 24.0315 8.47978H12.0139C11.6245 8.47978 11.2919 8.61818 11.0161 8.89497C10.7404 9.17176 10.6025 9.50557 10.6025 9.89641C10.6025 10.2872 10.7404 10.6151 11.0161 10.8799C11.2919 11.1447 11.6245 11.2772 12.0139 11.2772H17.1791C17.8798 11.2772 18.4614 11.444 18.9239 11.7777C19.3863 12.1116 19.7118 12.5312 19.9003 13.0363H11.6584C11.3605 13.0363 11.1101 13.1435 10.9071 13.3579C10.704 13.5723 10.6025 13.8326 10.6025 14.1388C10.6025 14.4375 10.704 14.6886 10.9071 14.8922C11.1101 15.0955 11.3605 15.1972 11.6584 15.1972H19.923C19.7345 15.7248 19.4052 16.1722 18.9352 16.5394C18.4652 16.9066 17.8467 17.0902 17.0797 17.0902H14.6033C14.1763 17.0902 13.8039 17.1933 13.486 17.3995C13.1678 17.606 12.929 17.8871 12.7696 18.2426C12.6105 18.5984 12.56 18.9684 12.6182 19.3525C12.6764 19.7369 12.8536 20.0923 13.15 20.4187L19.183 27.0289C19.5018 27.3707 19.895 27.5434 20.3627 27.5469C20.8301 27.5504 21.236 27.3923 21.5804 27.0727ZM17.8449 35.8559C15.3752 35.8559 13.058 35.3875 10.8931 34.4507C8.72795 33.5138 6.84464 32.2426 5.24318 30.637C3.642 29.031 2.37429 27.1425 1.44005 24.9713C0.505815 22.8005 0.0386963 20.4768 0.0386963 18.0002C0.0386963 15.5237 0.505815 13.2 1.44005 11.0291C2.37429 8.85793 3.642 6.96938 5.24318 5.36347C6.84464 3.75784 8.72795 2.48661 10.8931 1.54978C13.058 0.612948 15.3752 0.144531 17.8449 0.144531C20.3146 0.144531 22.6319 0.612948 24.7967 1.54978C26.9619 2.48661 28.8452 3.75784 30.4467 5.36347C32.0478 6.96938 33.3155 8.85793 34.2498 11.0291C35.184 13.2 35.6511 15.5237 35.6511 18.0002C35.6511 20.4768 35.184 22.8005 34.2498 24.9713C33.3155 27.1425 32.0478 29.031 30.4467 30.637C28.8452 32.2426 26.9619 33.5138 24.7967 34.4507C22.6319 35.3875 20.3146 35.8559 17.8449 35.8559Z" fill="#019863"/>
</svg>
