<svg width="49" height="49" viewBox="0 0 49 49" fill="none" xmlns="http://www.w3.org/2000/svg">
<path d="M24.5 15.3125C26.1914 15.3125 27.5625 13.9414 27.5625 12.25C27.5625 10.5586 26.1914 9.1875 24.5 9.1875C22.8086 9.1875 21.4375 10.5586 21.4375 12.25C21.4375 13.9414 22.8086 15.3125 24.5 15.3125Z" fill="#003321"/>
<path d="M24.5 27.5625C26.1914 27.5625 27.5625 26.1914 27.5625 24.5C27.5625 22.8086 26.1914 21.4375 24.5 21.4375C22.8086 21.4375 21.4375 22.8086 21.4375 24.5C21.4375 26.1914 22.8086 27.5625 24.5 27.5625Z" fill="#003321"/>
<path d="M24.5 39.8125C26.1914 39.8125 27.5625 38.4414 27.5625 36.75C27.5625 35.0586 26.1914 33.6875 24.5 33.6875C22.8086 33.6875 21.4375 35.0586 21.4375 36.75C21.4375 38.4414 22.8086 39.8125 24.5 39.8125Z" fill="#003321"/>
</svg>
