<svg width="22" height="22" viewBox="0 0 22 22" fill="none" xmlns="http://www.w3.org/2000/svg">
<g clip-path="url(#clip0_625_1331)">
<path d="M16.1333 0C15.7442 4.63404e-06 15.3711 0.154485 15.0959 0.429458C14.8208 0.70443 14.6662 1.07737 14.6662 1.46624V2.20007H1.4671C1.07801 2.20007 0.704854 2.35454 0.429722 2.6295C0.154591 2.90446 1.54465e-05 3.27738 0 3.66624C-1.75971e-06 3.85878 0.0379444 4.04945 0.111672 4.22734C0.1854 4.40523 0.293465 4.56686 0.429697 4.70302C0.56593 4.83917 0.727662 4.94717 0.905659 5.02086C1.08366 5.09455 1.27443 5.13247 1.4671 5.13247H14.6662V5.86717C14.6662 6.25603 14.8208 6.62897 15.0959 6.90395C15.3711 7.17892 15.7442 7.3334 16.1333 7.33341C16.5224 7.3334 16.8956 7.17892 17.1707 6.90395C17.4459 6.62897 17.6004 6.25603 17.6004 5.86717V5.13247H20.5328C20.7255 5.13248 20.9163 5.09456 21.0943 5.02088C21.2723 4.9472 21.434 4.8392 21.5703 4.70304C21.7065 4.56689 21.8146 4.40525 21.8883 4.22735C21.9621 4.04946 22 3.85879 22 3.66624C22 3.47369 21.962 3.28303 21.8883 3.10514C21.8146 2.92725 21.7065 2.76562 21.5703 2.62948C21.434 2.49333 21.2723 2.38534 21.0943 2.31166C20.9163 2.23798 20.7255 2.20006 20.5328 2.20007H17.6004V1.46624C17.6004 1.07737 17.4459 0.70443 17.1707 0.429458C16.8956 0.154485 16.5224 4.63404e-06 16.1333 0ZM5.5 7.33333C5.30733 7.33333 5.11655 7.37125 4.93854 7.44493C4.76054 7.51861 4.5988 7.62661 4.46256 7.76277C4.32632 7.89892 4.21824 8.06056 4.14451 8.23845C4.07078 8.41635 4.03283 8.60702 4.03283 8.79957V9.53333H1.46753C1.27486 9.53333 1.08409 9.57126 0.906089 9.64495C0.728091 9.71863 0.566359 9.82664 0.430127 9.96279C0.293894 10.0989 0.185829 10.2606 0.112102 10.4385C0.0383741 10.6164 0.000427903 10.807 0.000429681 10.9996C0.000427903 11.1921 0.0383741 11.3828 0.112102 11.5607C0.185829 11.7386 0.293894 11.9002 0.430127 12.0364C0.566359 12.1725 0.728091 12.2805 0.906089 12.3542C1.08409 12.4279 1.27486 12.4658 1.46753 12.4658H4.03283V13.2005C4.03283 13.3931 4.07078 13.5837 4.14451 13.7616C4.21825 13.9395 4.32632 14.1012 4.46256 14.2373C4.5988 14.3735 4.76054 14.4815 4.93854 14.5551C5.11655 14.6288 5.30733 14.6667 5.5 14.6667C5.8891 14.6667 6.26226 14.5123 6.5374 14.2373C6.81253 13.9623 6.9671 13.5894 6.9671 13.2005V12.4658H20.5333C20.726 12.4658 20.9168 12.4279 21.0948 12.3542C21.2728 12.2805 21.4345 12.1725 21.5707 12.0364C21.707 11.9002 21.815 11.7386 21.8888 11.5607C21.9625 11.3828 22.0004 11.1921 22.0004 10.9996C22.0004 10.807 21.9625 10.6164 21.8888 10.4385C21.815 10.2606 21.707 10.0989 21.5707 9.96279C21.4345 9.82664 21.2728 9.71863 21.0948 9.64495C20.9168 9.57126 20.726 9.53333 20.5333 9.53333H6.9671V8.79957C6.9671 8.4107 6.81253 8.03776 6.5374 7.76279C6.26226 7.48782 5.8891 7.33334 5.5 7.33333ZM10.2667 14.6667C9.87758 14.6667 9.50443 14.8212 9.22929 15.0962C8.95416 15.3711 8.79959 15.744 8.79957 16.1329V16.8667H1.46753C1.27486 16.8667 1.08409 16.9046 0.906089 16.9783C0.728091 17.052 0.566359 17.16 0.430127 17.2961C0.293894 17.4323 0.185829 17.5939 0.112102 17.7718C0.0383741 17.9497 0.000427903 18.1404 0.000429681 18.3329C0.000445155 18.7218 0.15502 19.0947 0.430152 19.3696C0.705284 19.6446 1.07844 19.7991 1.46753 19.7991H8.79957V20.5338C8.79959 20.9227 8.95416 21.2956 9.22929 21.5706C9.50443 21.8455 9.87758 22 10.2667 22C10.6558 22 11.0289 21.8455 11.304 21.5706C11.5792 21.2956 11.7337 20.9227 11.7338 20.5338V19.7991H20.5333C20.9224 19.7991 21.2956 19.6446 21.5707 19.3696C21.8458 19.0947 22.0004 18.7218 22.0004 18.3329C22.0004 18.1404 21.9625 17.9497 21.8888 17.7718C21.815 17.5939 21.707 17.4323 21.5707 17.2961C21.4345 17.16 21.2728 17.052 21.0948 16.9783C20.9168 16.9046 20.726 16.8667 20.5333 16.8667H11.7338V16.1329C11.7337 15.744 11.5792 15.3711 11.304 15.0962C11.0289 14.8212 10.6558 14.6667 10.2667 14.6667Z" fill="#F3F7F6"/>
</g>
<defs>
<clipPath id="clip0_625_1331">
<rect width="22" height="22" fill="white"/>
</clipPath>
</defs>
</svg>
