<svg width="72" height="64" viewBox="0 0 72 64" fill="none" xmlns="http://www.w3.org/2000/svg">
<path d="M2.25098 24.4995V54.4989C2.25098 58.641 5.60877 61.9987 9.75081 61.9987H32.2503M2.25098 24.4995V9.49984C2.25098 5.35779 5.60877 2 9.75081 2H62.2497C66.3918 2 69.7495 5.35779 69.7495 9.49984V24.4995M2.25098 24.4995H69.7495M69.7495 24.4995V35.7493" stroke="#003321" stroke-width="4" stroke-linecap="round" stroke-linejoin="round"/>
<path d="M54.7498 39.5V50.7498M54.7498 50.7498V61.9995M54.7498 50.7498H43.5M54.7498 50.7498H65.9995" stroke="#003321" stroke-width="4" stroke-linecap="round" stroke-linejoin="round"/>
<path d="M13.5009 16.9998C15.5719 16.9998 17.2508 15.3209 17.2508 13.2499C17.2508 11.1789 15.5719 9.5 13.5009 9.5C11.4299 9.5 9.75098 11.1789 9.75098 13.2499C9.75098 15.3209 11.4299 16.9998 13.5009 16.9998Z" fill="#003321"/>
<path d="M24.7504 16.9998C26.8214 16.9998 28.5003 15.3209 28.5003 13.2499C28.5003 11.1789 26.8214 9.5 24.7504 9.5C22.6794 9.5 21.0005 11.1789 21.0005 13.2499C21.0005 15.3209 22.6794 16.9998 24.7504 16.9998Z" fill="#003321"/>
</svg>
