<svg width="36" height="36" viewBox="0 0 36 36" fill="none" xmlns="http://www.w3.org/2000/svg">
<path fill-rule="evenodd" clip-rule="evenodd" d="M9.1928 1.58162C10.2055 0.568926 11.579 0 13.0112 0H22.9889C24.421 0 25.7945 0.568926 26.8072 1.58162L34.4183 9.1928C35.431 10.2055 36 11.579 36 13.0112V22.9889C36 24.421 35.431 25.7945 34.4183 26.8072L26.8072 34.4183C25.7945 35.431 24.421 36 22.9889 36H13.0112C11.579 36 10.2055 35.431 9.1928 34.4183L1.58162 26.8072C0.568926 25.7945 0 24.421 0 22.9889V13.0112C0 11.579 0.568926 10.2055 1.58162 9.1928L9.1928 1.58162ZM19.8 10.8C19.8 9.8059 18.9941 9 18 9C17.0059 9 16.2 9.8059 16.2 10.8V19.8C16.2 20.7941 17.0059 21.6 18 21.6C18.9941 21.6 19.8 20.7941 19.8 19.8V10.8ZM19.8 25.1798C19.8 24.1857 18.9941 23.3798 18 23.3798C17.0059 23.3798 16.2 24.1857 16.2 25.1798V25.2C16.2 26.1941 17.0059 27 18 27C18.9941 27 19.8 26.1941 19.8 25.2V25.1798Z" fill="#FF7F50"/>
</svg>
