<svg width="72" height="64" viewBox="0 0 72 64" fill="none" xmlns="http://www.w3.org/2000/svg">
<path d="M2.50146 24.4995V54.4989C2.50146 58.641 5.85925 61.9987 10.0013 61.9987H32.5008M2.50146 24.4995V9.49984C2.50146 5.35779 5.85925 2 10.0013 2H62.5002C66.6423 2 70 5.35779 70 9.49984V24.4995M2.50146 24.4995H70M70 24.4995V35.7493" stroke="#A21C0F" stroke-width="4" stroke-linecap="round" stroke-linejoin="round"/>
<path d="M43.7505 50.7505L55.0002 50.7502L66.25 50.7505" stroke="#A21C0F" stroke-width="4" stroke-linecap="round" stroke-linejoin="round"/>
<path d="M13.7511 16.9998C15.8222 16.9998 17.5011 15.3209 17.5011 13.2499C17.5011 11.1789 15.8222 9.5 13.7511 9.5C11.6801 9.5 10.0012 11.1789 10.0012 13.2499C10.0012 15.3209 11.6801 16.9998 13.7511 16.9998Z" fill="#A21C0F"/>
<path d="M25.0009 16.9998C27.0719 16.9998 28.7508 15.3209 28.7508 13.2499C28.7508 11.1789 27.0719 9.5 25.0009 9.5C22.9299 9.5 21.251 11.1789 21.251 13.2499C21.251 15.3209 22.9299 16.9998 25.0009 16.9998Z" fill="#A21C0F"/>
</svg>
