<svg width="32" height="32" viewBox="0 0 32 32" fill="none" xmlns="http://www.w3.org/2000/svg">
<circle cx="15.9999" cy="17.6" r="9.6" fill="#21C598"/>
<path fill-rule="evenodd" clip-rule="evenodd" d="M16 32C8.45752 32 4.68629 32 2.34315 29.6568C-1.90735e-07 27.3138 0 23.5424 0 16C0 8.45752 -1.90735e-07 4.68629 2.34315 2.34315C4.68629 -1.90735e-07 8.45752 0 16 0C23.5424 0 27.3138 -1.90735e-07 29.6568 2.34315C32 4.68629 32 8.45752 32 16C32 23.5424 32 27.3138 29.6568 29.6568C27.3138 32 23.5424 32 16 32ZM11.1514 11.1515C11.6201 10.6828 12.3799 10.6828 12.8485 11.1515L16 14.303L19.1514 11.1515C19.62 10.6829 20.3798 10.6829 20.8485 11.1515C21.3171 11.6201 21.3171 12.3799 20.8485 12.8485L17.697 16L20.8485 19.1515C21.3171 19.62 21.3171 20.3798 20.8485 20.8485C20.3798 21.3171 19.62 21.3171 19.1514 20.8485L16 17.6971L12.8485 20.8485C12.3799 21.3171 11.6201 21.3171 11.1515 20.8485C10.6828 20.3798 10.6828 19.6202 11.1515 19.1515L14.3029 16L11.1514 12.8485C10.6828 12.3799 10.6828 11.6201 11.1514 11.1515Z" fill="#21C598"/>
<path d="M19 23L12 16.5L19 10" stroke="#F3F7F6" stroke-width="4" stroke-linecap="round" stroke-linejoin="round"/>
</svg>
